<svg xmlns="http://www.w3.org/2000/svg" width="1000" height="400"><rect x="0" y="0" width="1000" height="400" fill="white"/><style >.series { font: italic 12pt sans-serif }.sparse { font: italic 11pt sans-serif; text-anchor: middle }.dense { font: 11pt sans-serif; text-anchor: middle }.time { font: 8pt sans-serif; text-anchor: middle }</style><text class="series" x="20" y="38">strong</text><line stroke="black" stroke-width="1pt" x1="150" y1="50" x2="950" y2="50"/><circle stroke="black" stroke-width="1pt" cx="375.0" cy="50" r="8" fill="white"/><text class="sparse" x="375.0" y="75">a</text><text class="series" x="20" y="138">weak</text><line stroke="black" stroke-width="1pt" x1="150" y1="150" x2="950" y2="150"/><line stroke="black" stroke-width="3pt" x1="150" y1="150" x2="950" y2="150"/><circle stroke="black" stroke-width="1pt" cx="550.0" cy="150" r="8" fill="black"/><text class="dense" x="550.0" y="175">X</text><line stroke="black" stroke-dasharray="5,5" stroke-width="1pt" x1="20" y1="200" x2="975" y2="200"/><text class="series" x="20" y="238">composed</text><line stroke="black" stroke-width="1pt" x1="150" y1="250" x2="950" y2="250"/><line stroke="black" stroke-width="3pt" x1="150" y1="250" x2="550.0" y2="250"/><line stroke="black" stroke-width="3pt" x1="550.0" y1="250" x2="950" y2="250"/><circle stroke="black" stroke-width="1pt" cx="375.0" cy="250" r="8" fill="black"/><text class="dense" x="375.0" y="275">a/X</text><circle stroke="black" stroke-width="1pt" cx="550.0" cy="250" r="8" fill="black"/><text class="dense" x="550.0" y="275">a/X</text><line stroke="black" stroke-width="1pt" x1="150" y1="350" x2="950" y2="350"/><line stroke="black" stroke-width="1pt" x1="200.0" y1="342" x2="200.0" y2="350"/><text class="time" x="200.0" y="370">0</text><line stroke="black" stroke-width="1pt" x1="375.0" y1="342" x2="375.0" y2="350"/><text class="time" x="375.0" y="370">1</text><line stroke="black" stroke-width="1pt" x1="550.0" y1="342" x2="550.0" y2="350"/><text class="time" x="550.0" y="370">2</text><line stroke="black" stroke-width="1pt" x1="725.0" y1="342" x2="725.0" y2="350"/><text class="time" x="725.0" y="370">3</text><line stroke="black" stroke-width="1pt" x1="900.0" y1="342" x2="900.0" y2="350"/><text class="time" x="900.0" y="370">4</text></svg>