<?xml version="1.0" encoding="UTF-8" standalone="no"?>
<!-- Created with Inkscape (http://www.inkscape.org/) -->

<svg
   version="1.1"
   id="svg1"
   width="1054.3516"
   height="972.65845"
   viewBox="0 0 1054.3516 972.65845"
   xmlns="http://www.w3.org/2000/svg"
   xmlns:svg="http://www.w3.org/2000/svg">
  <defs
     id="defs1" />
  <g
     id="g2"
     transform="translate(-27.174602,-42.929044)">
    <path
       style="fill:none;stroke:#e7c2be;stroke-width:3.77953;stroke-linecap:butt;stroke-linejoin:miter;stroke-dasharray:none;stroke-opacity:1"
       d="M 278.81299,116.22131 455.08781,281.33529 431.21501,46.075028"
       id="path2" />
    <path
       style="fill:none;stroke:#e7c2be;stroke-width:3.77953;stroke-linecap:butt;stroke-linejoin:miter;stroke-dasharray:none;stroke-opacity:1"
       d="M 631.70875,103.46127 455.08781,281.33529 716.17964,280.08005"
       id="path2-9" />
    <path
       style="fill:none;stroke:#e7c2be;stroke-width:3.77953;stroke-linecap:butt;stroke-linejoin:bevel;stroke-dasharray:none;stroke-opacity:1"
       d="M 243.16788,482.16718 195.32074,247.06639 30.65109,375.70301"
       id="path2-9-3" />
    <path
       style="fill:none;stroke:#e7c2be;stroke-width:3.77953;stroke-linecap:butt;stroke-linejoin:bevel;stroke-dasharray:none;stroke-opacity:1"
       d="M 243.16788,482.16718 455.08781,281.33529 194.99409,247.37051"
       id="path2-9-3-2" />
    <path
       style="fill:none;stroke:#e7c2be;stroke-width:3.77953;stroke-linecap:butt;stroke-linejoin:miter;stroke-dasharray:none;stroke-opacity:1"
       d="M 654.52296,446.53307 455.08781,281.33529 466.24502,448.98088"
       id="path2-9-3-2-2" />
    <path
       style="fill:none;stroke:#e7c2be;stroke-width:3.77953;stroke-linecap:butt;stroke-linejoin:bevel;stroke-dasharray:none;stroke-opacity:1"
       d="m 654.52296,446.53307 -188.27794,2.44781 -223.07714,33.1863"
       id="path2-9-3-2-2-0" />
    <path
       style="fill:none;stroke:#e7c2be;stroke-width:3.77953;stroke-linecap:butt;stroke-linejoin:bevel;stroke-dasharray:none;stroke-opacity:1"
       d="M 243.16788,482.16718 430.1714,712.33648 123.91315,647.40774"
       id="path2-9-3-2-2-0-0" />
    <path
       style="fill:none;stroke:#e7c2be;stroke-width:3.77953;stroke-linecap:butt;stroke-linejoin:miter;stroke-dasharray:none;stroke-opacity:1"
       d="M 654.52296,446.53307 430.1714,712.33648 466.24502,448.98088"
       id="path2-9-3-2-2-0-0-0" />
    <path
       style="fill:none;stroke:#e7c2be;stroke-width:3.77953;stroke-linecap:butt;stroke-linejoin:bevel;stroke-dasharray:none;stroke-opacity:1"
       d="M 819.07356,493.82273 763.24823,755.36479 654.52296,446.53307"
       id="path2-9-3-2-2-0-0-0-0" />
    <path
       style="fill:none;stroke:#e7c2be;stroke-width:3.77953;stroke-linecap:butt;stroke-linejoin:bevel;stroke-dasharray:none;stroke-opacity:1"
       d="M 1069.665,730.3819 762.06682,754.92176 1078.9294,400.21814"
       id="path2-9-3-2-2-0-0-0-0-5" />
    <path
       style="fill:none;stroke:#e7c2be;stroke-width:3.77953;stroke-linecap:butt;stroke-linejoin:bevel;stroke-dasharray:none;stroke-opacity:1"
       d="M 833.64227,1013.9887 763.24823,755.36479 997.37619,920.25485"
       id="path2-9-3-2-2-0-0-0-0-5-1" />
    <path
       style="fill:none;stroke:#e7c2be;stroke-width:3.77953;stroke-linecap:butt;stroke-linejoin:bevel;stroke-dasharray:none;stroke-opacity:1"
       d="M 833.10375,1013.0611 430.1714,712.33648 763.24823,755.36479"
       id="path2-9-3-2-2-0-0-0-0-5-1-4" />
    <path
       style="fill:none;stroke:#e7c2be;stroke-width:3.77953;stroke-linecap:butt;stroke-linejoin:miter;stroke-dasharray:none;stroke-opacity:1"
       d="M 148.948,871.86953 430.1714,712.33648 301.75387,1013.6795"
       id="path2-9-3-2-2-0-0-0-0-5-1-4-0" />
  </g>
  <path
     style="fill:none;stroke:#af3429;stroke-width:3.77953;stroke-linecap:butt;stroke-linejoin:miter;stroke-dasharray:none;stroke-opacity:1"
     d="M 1.8999453,239.33807 167.50633,204.03292 251.38651,72.896306 403.78852,2.0116459 604.62839,59.900786 688.50857,237.11243 627.0752,403.69138 l 165.39754,47.25644 259.91036,-94.51288 -9.4513,330.79507 -72.06601,189.02576 -165.39753,94.51289 H 273.83332 L 121.4313,828.99933 96.621668,604.53124 215.94418,439.13371 2.5264833,333.71377 Z"
     id="path1" />
</svg>
